<svg width="270" height="274" viewBox="0 0 270 274" fill="none" xmlns="http://www.w3.org/2000/svg">
<path d="M1.22842 270.559C1.22842 272 2.39667 273.168 3.83783 273.168H76.1737C88.5376 273.168 98.5605 263.145 98.5605 250.781V195.664C98.5605 184.838 107.336 176.062 118.162 176.062H231.564C251.946 176.062 268.469 159.539 268.469 139.157V4.00006C268.469 2.5589 267.301 1.39066 265.859 1.39066H130.467C110.085 1.39066 93.562 17.9136 93.562 38.2957V155.242C93.562 166.068 84.7862 174.844 73.9607 174.844H23.6152C11.2513 174.844 1.22842 184.867 1.22842 197.23V270.559Z" stroke="#EAEAEA" stroke-width="1.21883"/>
</svg>
