<svg width="272" height="275" viewBox="0 0 272 275" fill="none" xmlns="http://www.w3.org/2000/svg">
<path d="M4.83783 273.168H77.1737C89.5376 273.168 99.5605 263.145 99.5605 250.781V195.664C99.5605 184.838 108.336 176.062 119.162 176.062H232.564C252.946 176.062 269.469 159.539 269.469 139.157V4.00006C269.469 2.55893 268.301 1.39066 266.859 1.39066H131.467C111.085 1.39066 94.562 17.9136 94.562 38.2957V155.242C94.562 166.068 85.7862 174.844 74.9607 174.844H24.6152C12.2513 174.844 2.22842 184.867 2.22842 197.23V270.559C2.22842 272 3.3967 273.168 4.83783 273.168Z" stroke="#EAEAEA" stroke-width="1.21883"/>
<path d="M261.898 138.053C261.898 154.621 248.467 168.053 231.898 168.053H105.105C104 168.053 103.105 167.157 103.105 166.053V39.2589C103.105 22.6904 116.536 9.25896 133.105 9.25896H259.898C261.003 9.25896 261.898 10.1544 261.898 11.259V138.053Z" fill="#F3F2F5"/>
<path d="M92.2163 250.499C92.2163 259.336 85.0529 266.499 76.2163 266.499H12.0184C10.9138 266.499 10.0184 265.604 10.0184 264.499V200.301C10.0184 191.465 17.1818 184.301 26.0184 184.301H90.2163C91.3209 184.301 92.2163 185.197 92.2163 186.301V250.499Z" fill="#F3F2F5"/>
</svg>
