<svg width="24" height="25" viewBox="0 0 24 25" fill="none" xmlns="http://www.w3.org/2000/svg">
<path fill-rule="evenodd" clip-rule="evenodd" d="M19 3.09668C19.5304 3.09668 20.0391 3.30739 20.4142 3.68247C20.7893 4.05754 21 4.56625 21 5.09668V19.0967C21 19.6271 20.7893 20.1358 20.4142 20.5109C20.0391 20.886 19.5304 21.0967 19 21.0967H5C4.46957 21.0967 3.96086 20.886 3.58579 20.5109C3.21071 20.1358 3 19.6271 3 19.0967V5.09668C3 4.56625 3.21071 4.05754 3.58579 3.68247C3.96086 3.30739 4.46957 3.09668 5 3.09668H19ZM18.5 18.5967V13.2967C18.5 12.4321 18.1565 11.6029 17.5452 10.9915C16.9338 10.3801 16.1046 10.0367 15.24 10.0367C14.39 10.0367 13.4 10.5567 12.92 11.3367V10.2267H10.13V18.5967H12.92V13.6667C12.92 12.8967 13.54 12.2667 14.31 12.2667C14.6813 12.2667 15.0374 12.4142 15.2999 12.6767C15.5625 12.9393 15.71 13.2954 15.71 13.6667V18.5967H18.5ZM6.88 8.65668C7.32556 8.65668 7.75288 8.47968 8.06794 8.16462C8.383 7.84956 8.56 7.42224 8.56 6.97668C8.56 6.04668 7.81 5.28668 6.88 5.28668C6.43178 5.28668 6.00193 5.46473 5.68499 5.78167C5.36805 6.09861 5.19 6.52846 5.19 6.97668C5.19 7.90668 5.95 8.65668 6.88 8.65668ZM8.27 18.5967V10.2267H5.5V18.5967H8.27Z" fill="white"/>
</svg>
