<svg width="24" height="25" viewBox="0 0 24 25" fill="none" xmlns="http://www.w3.org/2000/svg">
<path d="M14.9248 17.3523H16.5507L9.06621 6.87649H7.44012L14.9248 17.3523Z" fill="white"/>
<path fill-rule="evenodd" clip-rule="evenodd" d="M20.4142 3.68247C20.0391 3.30739 19.5304 3.09668 19 3.09668H5C4.46957 3.09668 3.96086 3.30739 3.58579 3.68247C3.21071 4.05754 3 4.56625 3 5.09668V19.0967C3 19.6271 3.21071 20.1358 3.58579 20.5109C3.96086 20.886 4.46957 21.0967 5 21.0967H19C19.5304 21.0967 20.0391 20.886 20.4142 20.5109C20.7893 20.1358 21 19.6271 21 19.0967V5.09668C21 4.56625 20.7893 4.05754 20.4142 3.68247ZM17.6089 6.09668L13.1417 11.1779L18 18.0967H14.4267L11.155 13.4376L7.0587 18.0967H6L10.6849 12.7683L6 6.09668H9.57333L12.6714 10.5086L16.5502 6.09668H17.6089Z" fill="white"/>
</svg>
