<?xml version="1.0" encoding="utf-8"?><svg xmlns="http://www.w3.org/2000/svg" xmlns:xlink="http://www.w3.org/1999/xlink"><symbol viewBox="0 0 24 24" id="arrow" xmlns="http://www.w3.org/2000/svg"><path d="m3.429 19.346 1.225 1.226L18.829 6.396v12.767h1.733v-14.5l.01-.009-.01-.01V3.439h-1.206l-.01-.01-.01.01h-14.5v1.733h12.768L3.429 19.346Z"/></symbol><symbol viewBox="0 0 25 24" id="arrow-right" xmlns="http://www.w3.org/2000/svg"><path d="M.745 11.133v1.733H20.79l-9.027 9.028 1.225 1.225 10.253-10.253h.013v-.013L24.11 12l-.854-.854v-.013h-.013L12.99.88l-1.225 1.225 9.028 9.028H.745Z"/></symbol><symbol viewBox="0 0 24 24" id="backed-by" xmlns="http://www.w3.org/2000/svg"><rect x="2.101" y="1.998" width="8.525" height="8.525" rx="1.057"/><rect x="13.375" y="13.477" width="8.525" height="8.525" rx="1.057"/><path d="m10.38 10.31 4.59 4.59"/></symbol><symbol viewBox="0 0 12 12" id="bind" xmlns="http://www.w3.org/2000/svg"><path fill-rule="evenodd" clip-rule="evenodd" d="M1.537 5.025c0-.22.18-.4.4-.4h8.125a.4.4 0 1 1 0 .8H1.937a.4.4 0 0 1-.4-.4ZM10.462 6.979a.4.4 0 0 1-.4.4H1.937a.4.4 0 1 1 0-.8h8.125c.22 0 .4.179.4.4Z"/><path fill-rule="evenodd" clip-rule="evenodd" d="M7.068 2.032a.4.4 0 0 1 .566 0l2.708 2.709a.4.4 0 0 1-.565.565L7.068 2.598a.4.4 0 0 1 0-.566ZM4.93 9.972a.4.4 0 0 1-.565 0L1.657 7.263a.4.4 0 0 1 .565-.565l2.709 2.708a.4.4 0 0 1 0 .566Z"/></symbol><symbol viewBox="0 0 28 28" id="book" xmlns="http://www.w3.org/2000/svg"><path fill-rule="evenodd" clip-rule="evenodd" d="m13.78 7.35.227.283.224-.284c.325-.41.914-.821 1.686-1.13a7.263 7.263 0 0 1 2.667-.506c1.291 0 2.454.333 3.354.817.88.474 1.482 1.076 1.727 1.625v13.408c0 .299-.095.466-.207.564-.118.103-.294.16-.507.16-.182 0-.312-.026-.42-.068a1.287 1.287 0 0 1-.324-.195c-.59-.503-1.772-1.173-3.623-1.173-1.836 0-3.11.665-3.672 1.108-.246.173-.483.328-.907.328a1.31 1.31 0 0 1-.903-.317c-.547-.488-1.86-1.12-3.686-1.12-1.85 0-3.023.66-3.623 1.174-.117.09-.216.153-.324.194a1.13 1.13 0 0 1-.42.069c-.212 0-.388-.057-.507-.16-.112-.098-.207-.265-.207-.564V8.155c.245-.549.846-1.151 1.727-1.625.9-.484 2.063-.817 3.354-.817.975 0 1.9.198 2.668.505.773.31 1.366.721 1.696 1.133ZM5.33 8.46l-.018.048v12.879l.466-.368c.85-.67 2.176-1.047 3.64-1.047 1.452 0 2.783.376 3.635 1.013l.46.344V8.513l-.014-.044c-.07-.212-.233-.43-.444-.63a3.875 3.875 0 0 0-.85-.594c-.696-.368-1.646-.652-2.788-.652-1.146 0-2.09.282-2.784.648a3.904 3.904 0 0 0-.85.594c-.213.201-.376.416-.453.624Zm17.36 12.927V8.507l-.018-.048c-.076-.207-.24-.423-.453-.624a3.904 3.904 0 0 0-.85-.594c-.693-.366-1.638-.648-2.784-.648-1.142 0-2.092.284-2.787.652-.347.183-.634.39-.85.595-.212.2-.375.417-.444.63l-.015.043v12.815l.46-.344c.852-.637 2.183-1.013 3.636-1.013 1.463 0 2.79.377 3.639 1.047l.466.368Z"/></symbol><symbol viewBox="0 0 24 24" id="box-alt" xmlns="http://www.w3.org/2000/svg"><path d="M5 9h14v11H5zM4 9h16V5H4z"/><path d="M9 12h6v3H9z"/></symbol><symbol viewBox="0 0 24 24" id="buyers-and-sellers" xmlns="http://www.w3.org/2000/svg"><rect x="6" y="6" width="12" height="12" rx="2"/></symbol><symbol viewBox="0 0 24 24" id="calendar" xmlns="http://www.w3.org/2000/svg"><path fill-rule="evenodd" clip-rule="evenodd" d="M7 2.25a.75.75 0 0 1 .75.75v1.25h8.5V3a.75.75 0 0 1 1.5 0v1.25H21a.75.75 0 0 1 .75.75v16a.75.75 0 0 1-.75.75H3a.75.75 0 0 1-.75-.75V5A.75.75 0 0 1 3 4.25h3.25V3A.75.75 0 0 1 7 2.25Zm13.25 6v-2.5H3.75v2.5h16.5Zm-16.5 1.5h16.5v10.5H3.75V9.75Z"/></symbol><symbol viewBox="0 0 24 24" id="chart" xmlns="http://www.w3.org/2000/svg"><path fill-rule="evenodd" clip-rule="evenodd" d="M2.5 12a.5.5 0 0 0-.5.5v8a.5.5 0 0 0 .5.5h3a.5.5 0 0 0 .5-.5v-8a.5.5 0 0 0-.5-.5h-3ZM10.5 3a.5.5 0 0 0-.5.5v17a.5.5 0 0 0 .5.5h3a.5.5 0 0 0 .5-.5v-17a.5.5 0 0 0-.5-.5h-3ZM18.5 7a.5.5 0 0 0-.5.5v13a.5.5 0 0 0 .5.5h3a.5.5 0 0 0 .5-.5v-13a.5.5 0 0 0-.5-.5h-3Z"/></symbol><symbol viewBox="0 0 24 24" id="check" xmlns="http://www.w3.org/2000/svg"><path d="m3 12.563 5.625 5.624L21 5.813"/></symbol><symbol viewBox="0 0 24 24" id="chevron-down" xmlns="http://www.w3.org/2000/svg"><path d="M12 14.909 3.796 6.704 2.205 8.295 12 18.091l9.796-9.796-1.591-1.59L12 14.908Z"/></symbol><symbol viewBox="0 0 24 24" id="chevron-left" xmlns="http://www.w3.org/2000/svg"><path d="m9.489 12.398 8.204 8.204-1.59 1.591-9.796-9.795 9.795-9.796 1.591 1.591-8.204 8.205Z"/></symbol><symbol viewBox="0 0 24 24" id="chevron-right" xmlns="http://www.w3.org/2000/svg"><path d="M14.511 12.397 6.307 4.193l1.59-1.591 9.796 9.795-9.795 9.796-1.591-1.591 8.204-8.205Z"/></symbol><symbol viewBox="0 0 24 24" id="chevron-up" xmlns="http://www.w3.org/2000/svg"><path d="m12 9.886-8.204 8.205L2.205 16.5 12 6.704l9.796 9.796-1.591 1.59L12 9.887Z"/></symbol><symbol viewBox="0 0 24 24" id="credit-card" xmlns="http://www.w3.org/2000/svg"><path d="M21.369 5.107v7.385h.857V5.107a3 3 0 0 0-3-3h-7.861v.858h7.86c1.184 0 2.143.959 2.143 2.142Z"/><path d="M17.04 16.818V9.433c0-1.183-.96-2.143-2.144-2.143h-7.86v-.857h7.86a3 3 0 0 1 3 3v7.385h-.857Z"/><path fill-rule="evenodd" clip-rule="evenodd" d="M11.428 22.004H4.424a2.571 2.571 0 0 1-2.571-2.571v-6.528a2.571 2.571 0 0 1 2.571-2.571h7.004a2.571 2.571 0 0 1 2.571 2.571v6.528a2.571 2.571 0 0 1-2.571 2.571Zm0-.857H4.424a1.714 1.714 0 0 1-1.714-1.714v-6.528c0-.946.767-1.714 1.714-1.714h7.004c.946 0 1.714.768 1.714 1.714v6.528c0 .947-.768 1.714-1.714 1.714Z"/></symbol><symbol viewBox="0 0 24 24" id="envelope-alt" xmlns="http://www.w3.org/2000/svg"><path d="m3 5 9 9 9-9"/><path d="M3 5h18v14H3z"/></symbol><symbol viewBox="0 0 24 24" id="extension" xmlns="http://www.w3.org/2000/svg"><path d="M8 5a2 2 0 1 1 4 0v2h5v5h2a2 2 0 1 1 0 4h-2v5h-5v-2a2 2 0 1 0-4 0v2H3v-5h2a2 2 0 1 0 0-4H3V7h5V5Z"/></symbol><symbol viewBox="0 0 14 14" id="external" xmlns="http://www.w3.org/2000/svg"><path d="m2 11.285.715.715 8.269-8.269v7.448h1.01V2.72L12 2.715l-.005-.006v-.704h-.704L11.285 2l-.005.005H2.82v1.011h7.448L2 11.286Z"/></symbol><symbol viewBox="0 0 24 24" id="eye-crossed" xmlns="http://www.w3.org/2000/svg"><path d="M22 12s-3 6-10 6-10-6-10-6 3-6 10-6 10 6 10 6Z"/><circle cx="12" cy="12" r="3"/><path d="M3 21 20 4"/></symbol><symbol viewBox="0 0 24 24" id="facebook" xmlns="http://www.w3.org/2000/svg"><path d="M21.5 12.023c0-5.244-4.256-9.5-9.5-9.5s-9.5 4.256-9.5 9.5c0 4.598 3.268 8.427 7.6 9.31v-6.46H8.2v-2.85h1.9V9.648a3.329 3.329 0 0 1 3.325-3.325H15.8v2.85h-1.9a.953.953 0 0 0-.95.95v1.9h2.85v2.85h-2.85v6.603a9.499 9.499 0 0 0 8.55-9.453Z"/></symbol><symbol viewBox="0 0 24 24" id="factory" xmlns="http://www.w3.org/2000/svg"><path d="M9 13.5V9c0-.943 0-1.414-.293-1.707C8.414 7 7.943 7 7 7H5c-.943 0-1.414 0-1.707.293C3 7.586 3 8.057 3 9v9c0 1.886 0 2.828.586 3.414C4.172 22 5.114 22 7 22h2m0-8.5 3.317-1.658c1.1-.55 1.65-.826 2.077-.643a1 1 0 0 1 .252.155c.354.3.354.915.354 2.146l3.106-1.553c1.297-.648 1.945-.973 2.42-.68.475.293.474 1.019.474 2.47V18c0 1.886 0 2.828-.586 3.414C19.828 22 18.886 22 17 22H9m0-8.5V22M3 10h6m4-8H8c-.943 0-1.414 0-1.707.293C6 2.586 6 3.057 6 4m10-2h1m-6 3h6"/></symbol><symbol viewBox="0 0 24 24" id="feather" xmlns="http://www.w3.org/2000/svg"><path fill-rule="evenodd" clip-rule="evenodd" d="M5.52 17.317c-.06.554-.092 1.116-.092 1.683v2h-.857v-2c0-.693.044-1.38.13-2.054C5.634 9.616 11.53 3.57 20 3.57h.549l-1.215 4.857h-2.64l.827 1.656-2.344 2.344h-3.143l1.487 1.487-1.256 2.513H8.072l-2.552.889Zm.136-.955 2.271-.79h3.808l.743-1.487-2.513-2.514h4.857l1.656-1.656-1.172-2.344h3.36l.783-3.134c-7.45.246-12.668 5.468-13.793 11.925Z"/></symbol><symbol viewBox="0 0 24 24" id="file" xmlns="http://www.w3.org/2000/svg"><path d="M13 3v6h6"/><path d="m19 8-5-5H5v18h14V8Z"/></symbol><symbol viewBox="0 0 24 24" id="financial" xmlns="http://www.w3.org/2000/svg"><path d="M6.475 3.428h11.05v-.857H6.475v.857ZM17.525 6.857H6.475V6h11.05v.857Z"/><path fill-rule="evenodd" clip-rule="evenodd" d="M15.81 21.857H8.19a2.571 2.571 0 0 1-2.572-2.571v-7.117A2.571 2.571 0 0 1 8.19 9.598h7.62a2.571 2.571 0 0 1 2.572 2.571v7.117a2.571 2.571 0 0 1-2.572 2.571Zm0-.857H8.19a1.714 1.714 0 0 1-1.715-1.714v-7.117c0-.947.768-1.714 1.715-1.714h7.62c.947 0 1.715.767 1.715 1.714v7.117c0 .946-.768 1.714-1.715 1.714Z"/></symbol><symbol viewBox="0 0 28 28" id="fucion" xmlns="http://www.w3.org/2000/svg"><path fill-rule="evenodd" clip-rule="evenodd" d="M12.555 26.5H4a3 3 0 0 1-3-3v-7.743a3 3 0 0 1 3-3h6.521a2.429 2.429 0 0 0 2.429-2.429V4.5a3 3 0 0 1 3-3H24a3 3 0 0 1 3 3V12a3 3 0 0 1-3 3h-6.016a2.429 2.429 0 0 0-2.429 2.429v6.07a3 3 0 0 1-3 3ZM4 25.5a2 2 0 0 1-2-2v-7.743a2 2 0 0 1 2-2h6.521a3.429 3.429 0 0 0 3.429-3.429V4.5a2 2 0 0 1 2-2H24a2 2 0 0 1 2 2V12a2 2 0 0 1-2 2h-6.016a3.429 3.429 0 0 0-3.429 3.429v6.07a2 2 0 0 1-2 2H4Z"/></symbol><symbol viewBox="0 0 24 24" id="fusion" xmlns="http://www.w3.org/2000/svg"><path fill-rule="evenodd" clip-rule="evenodd" d="M10.762 22.714H3.429a2.571 2.571 0 0 1-2.572-2.572v-6.637a2.571 2.571 0 0 1 2.572-2.571h5.59c1.15 0 2.081-.932 2.081-2.082V3.857a2.571 2.571 0 0 1 2.572-2.572h6.9a2.571 2.571 0 0 1 2.571 2.572v6.428a2.571 2.571 0 0 1-2.571 2.572h-5.157c-1.15 0-2.082.932-2.082 2.082v5.203a2.571 2.571 0 0 1-2.571 2.572Zm-7.333-.857a1.714 1.714 0 0 1-1.714-1.715v-6.637c0-.946.767-1.714 1.714-1.714h5.59a2.939 2.939 0 0 0 2.938-2.939V3.857c0-.947.768-1.715 1.714-1.715h6.9c.947 0 1.715.768 1.715 1.715v6.428c0 .947-.768 1.715-1.714 1.715h-5.157a2.939 2.939 0 0 0-2.939 2.938v5.204c0 .947-.768 1.715-1.714 1.715H3.429Z"/></symbol><symbol viewBox="0 0 24 24" id="handshake" xmlns="http://www.w3.org/2000/svg"><path d="M11.702 19.942c.13 0 .264-.029.402-.088.137-.058.248-.13.333-.215l7.796-7.797c.251-.25.445-.508.582-.77.136-.263.204-.552.204-.866 0-.318-.068-.626-.204-.926-.137-.3-.33-.573-.582-.82l-3.75-3.75a2.55 2.55 0 0 0-.763-.553 2.09 2.09 0 0 0-.868-.176c-.314 0-.606.06-.875.176-.27.118-.523.302-.761.552l-.872.872 1.85 1.855c.198.196.347.418.445.666.097.25.146.501.146.757 0 .521-.17.952-.511 1.292-.34.341-.771.511-1.291.51-.257 0-.507-.039-.751-.117a1.624 1.624 0 0 1-.66-.41L9.66 8.228l-4.318 4.317a1.057 1.057 0 0 0-.303.735c0 .236.075.43.227.583.15.154.344.23.58.23.13 0 .264-.029.402-.088.137-.059.248-.13.333-.216L9.75 10.62l.708.708-3.164 3.17a.996.996 0 0 0-.228.344c-.05.13-.075.26-.075.39 0 .224.078.414.236.571a.78.78 0 0 0 .57.237c.131 0 .265-.03.403-.089.137-.059.248-.13.333-.215l3.4-3.394.708.707-3.395 3.4a.958.958 0 0 0-.218.333 1.04 1.04 0 0 0-.086.402c0 .223.079.413.237.57a.774.774 0 0 0 .57.238c.131 0 .261-.025.39-.076a.98.98 0 0 0 .345-.228l3.4-3.395.708.708-3.4 3.4a.976.976 0 0 0-.227.365c-.05.142-.076.272-.076.39a.72.72 0 0 0 .249.57.835.835 0 0 0 .564.217m-.006 1c-.514 0-.954-.188-1.32-.564-.366-.376-.527-.84-.482-1.394-.567.007-1.039-.162-1.415-.507-.377-.345-.556-.826-.537-1.444-.618.007-1.104-.17-1.46-.53-.356-.36-.518-.834-.486-1.422-.556.007-1.022-.15-1.396-.47-.374-.318-.561-.762-.561-1.332 0-.256.05-.513.149-.77.1-.257.246-.483.44-.678L9.66 6.806l2.582 2.582a.986.986 0 0 0 .735.304.817.817 0 0 0 .567-.224.756.756 0 0 0 .247-.584 1.022 1.022 0 0 0-.304-.734l-3.44-3.44a2.52 2.52 0 0 0-.773-.553 2.16 2.16 0 0 0-.878-.176c-.314 0-.6.06-.856.176-.256.118-.51.302-.761.553L3.735 7.76a2.496 2.496 0 0 0-.52.765 2.38 2.38 0 0 0-.21.917c-.007.226.012.443.058.651.045.208.118.404.22.588l-.758.758a3.413 3.413 0 0 1-.394-.926A3.779 3.779 0 0 1 2 9.443c.008-.454.099-.89.273-1.305.174-.415.423-.785.748-1.11l3.025-3.026a3.617 3.617 0 0 1 1.107-.77c.39-.167.81-.25 1.263-.25.452 0 .87.083 1.252.251.383.168.747.424 1.092.77l.87.87.872-.87a3.66 3.66 0 0 1 1.097-.77c.383-.168.8-.252 1.253-.252.453 0 .873.084 1.263.252.389.168.755.424 1.1.77l3.726 3.724c.345.345.61.732.798 1.161.187.43.28.87.28 1.323 0 .454-.093.871-.28 1.253a4.107 4.107 0 0 1-.798 1.092l-7.797 7.79a1.95 1.95 0 0 1-.678.454 2.11 2.11 0 0 1-.77.142"/></symbol><symbol viewBox="0 0 24 24" id="home" xmlns="http://www.w3.org/2000/svg"><path fill-rule="evenodd" clip-rule="evenodd" d="M3 10.182v10S3 22 4.8 22h14.4s1.8 0 1.8-1.818v-10L12 2l-9 8.182Z"/></symbol><symbol viewBox="0 0 24 24" id="intermediate" xmlns="http://www.w3.org/2000/svg"><path d="M4 12h16"/></symbol><symbol viewBox="0 0 24 24" id="key" xmlns="http://www.w3.org/2000/svg"><path d="M21 16v-4h-9"/><path fill-rule="evenodd" clip-rule="evenodd" d="M7 16a4 4 0 1 0 0-8 4 4 0 0 0 0 8Z"/><path d="M17 15v-3"/></symbol><symbol viewBox="0 0 24 24" id="language" xmlns="http://www.w3.org/2000/svg"><path fill-rule="evenodd" clip-rule="evenodd" d="M12 22c5.523 0 10-4.477 10-10S17.523 2 12 2 2 6.477 2 12s4.477 10 10 10Z"/><path fill-rule="evenodd" clip-rule="evenodd" d="M12 21s4-3.273 4-9-4-9-4-9-4 3.273-4 9 4 9 4 9Z"/><path d="M2.5 9h19M2.5 15h19"/></symbol><symbol viewBox="0 0 24 24" id="lightbulb" xmlns="http://www.w3.org/2000/svg"><path fill-rule="evenodd" clip-rule="evenodd" d="M16 12c-1 1-1 3-1 4s-1 1-1 1h-4s-1 0-1-1 0-3-1-4c-2.326-2.326-2.586-5.9-.243-8.243a6 6 0 0 1 8.486 0C18.585 6.101 18.407 9.593 16 12Z"/><path d="M10 21h4"/></symbol><symbol viewBox="0 0 24 24" id="line-chart" xmlns="http://www.w3.org/2000/svg"><path d="m3 16 5-5"/><path fill-rule="evenodd" clip-rule="evenodd" d="M9 11a1 1 0 1 0 0-2 1 1 0 0 0 0 2ZM14 16a1 1 0 1 0 0-2 1 1 0 0 0 0 2Z"/><path d="m10 11 3 3M15 14l6-6"/></symbol><symbol viewBox="0 0 24 24" id="linkedin" xmlns="http://www.w3.org/2000/svg"><path fill-rule="evenodd" clip-rule="evenodd" d="M19 3a2 2 0 0 1 2 2v14a2 2 0 0 1-2 2H5a2 2 0 0 1-2-2V5a2 2 0 0 1 2-2h14Zm-.5 15.5v-5.3a3.26 3.26 0 0 0-3.26-3.26c-.85 0-1.84.52-2.32 1.3v-1.11h-2.79v8.37h2.79v-4.93c0-.77.62-1.4 1.39-1.4a1.4 1.4 0 0 1 1.4 1.4v4.93h2.79ZM6.88 8.56a1.68 1.68 0 0 0 1.68-1.68c0-.93-.75-1.69-1.68-1.69a1.69 1.69 0 0 0-1.69 1.69c0 .93.76 1.68 1.69 1.68Zm1.39 9.94v-8.37H5.5v8.37h2.77Z"/></symbol><symbol viewBox="0 0 24 24" id="location" xmlns="http://www.w3.org/2000/svg"><path fill-rule="evenodd" clip-rule="evenodd" d="M12 21s6-6.3 6-12A6 6 0 0 0 6 9c0 5.7 6 12 6 12Z"/><path fill-rule="evenodd" clip-rule="evenodd" d="M12 10a1 1 0 1 0 0-2 1 1 0 0 0 0 2Z"/></symbol><symbol viewBox="0 0 24 24" id="lock" xmlns="http://www.w3.org/2000/svg"><rect x="5" y="11" width="14" height="10" rx="1"/><path d="M7 8a5 5 0 0 1 10 0v3H7V8Z"/></symbol><symbol viewBox="0 0 24 24" id="map" xmlns="http://www.w3.org/2000/svg"><path fill-rule="evenodd" clip-rule="evenodd" d="M4 5.778 9 4v14.222L4 20V5.778ZM15 5.778 20 4v14.222L15 20V5.778ZM15 5.778 9 4v14.222L15 20V5.778Z"/></symbol><symbol viewBox="0 0 24 24" id="origin" xmlns="http://www.w3.org/2000/svg"><path fill-rule="evenodd" clip-rule="evenodd" d="M12 19a7 7 0 1 0 0-14 7 7 0 0 0 0 14Z"/><path d="M12 2v6M12 16v6M2 12h6M16 12h6"/><circle cx="12" cy="12" r="1"/></symbol><symbol viewBox="0 0 24 24" id="person" xmlns="http://www.w3.org/2000/svg"><path d="M4 20c0-3 4-3 6-5 1-1-2-1-2-6 0-3.333 1.333-5 4-5s4 1.667 4 5c0 5-3 5-2 6 2 2 6 2 6 5"/></symbol><symbol viewBox="0 0 24 24" id="phone" xmlns="http://www.w3.org/2000/svg"><path d="m13.328 17.02 2.455-1.94a1 1 0 0 1 1.283.037l2.708 2.401a1 1 0 0 1-.043 1.533l-.136.107c-.788.623-1.836.81-2.746.386-1.78-.832-4.82-2.567-7.174-5.545-2.353-2.978-3.34-6.335-3.738-8.26-.204-.984.221-1.96 1.01-2.583l.135-.107a1 1 0 0 1 1.5.312l1.712 3.189a1 1 0 0 1-.261 1.257l-2.454 1.94"/></symbol><symbol viewBox="0 0 24 24" id="plus" xmlns="http://www.w3.org/2000/svg"><path d="M11.883 3.6v5.505a3.45 3.45 0 0 0 3.45 3.45H20.4v-.9h-5.067a2.55 2.55 0 0 1-2.55-2.55V3.6h-.9ZM8.79 12.555a2.55 2.55 0 0 1 2.55 2.55V20.4h.9v-5.295a3.45 3.45 0 0 0-3.45-3.45H3.6v.9h5.19Z"/></symbol><symbol viewBox="0 0 24 24" id="plus-rotate" xmlns="http://www.w3.org/2000/svg"><path d="m17.857 5.978-3.893 3.893a3.45 3.45 0 0 0 0 4.879l3.583 3.583.637-.637-3.583-3.583a2.55 2.55 0 0 1 0-3.606l3.892-3.893-.636-.636ZM9.337 10.123a2.55 2.55 0 0 1 0 3.606l-3.744 3.744.637.637 3.744-3.744a3.45 3.45 0 0 0 0-4.88l-3.67-3.67-.636.637 3.67 3.67Z"/></symbol><symbol viewBox="0 0 24 24" id="reload" xmlns="http://www.w3.org/2000/svg"><path fill-rule="evenodd" clip-rule="evenodd" d="M15.742 9.193h2.449l-.16-.295c-.72-1.33-2.443-3.895-5.94-3.895-4.307 0-7.074 3.488-7.074 6.997 0 3.51 2.767 6.997 7.074 6.997 2.081 0 3.793-.808 5.01-2.036a7.174 7.174 0 0 0 1.523-2.284.401.401 0 0 1 .22-.219.413.413 0 0 1 .535.216.394.394 0 0 1 .001.306 7.972 7.972 0 0 1-1.695 2.543c-1.365 1.373-3.283 2.277-5.593 2.277C7.27 19.8 4.2 15.89 4.2 12c0-3.89 3.07-7.8 7.891-7.8 3.743 0 5.674 2.591 6.519 4.066l.373.651V5.985c0-.106.043-.207.12-.283a.412.412 0 0 1 .578 0 .398.398 0 0 1 .12.283v3.61a.398.398 0 0 1-.12.282.412.412 0 0 1-.29.119h-3.65a.412.412 0 0 1-.289-.119.398.398 0 0 1 0-.566.412.412 0 0 1 .29-.118Z"/></symbol><symbol viewBox="0 0 24 24" id="research" xmlns="http://www.w3.org/2000/svg"><path d="M21.766 11.83V4.712c0-1.184-.96-2.143-2.142-2.143h-7.621v-.857h7.62a3 3 0 0 1 3 3v7.116h-.857Z"/><path fill-rule="evenodd" clip-rule="evenodd" d="m15.848 18.095-7.62-.154a2.571 2.571 0 0 1-2.52-2.57V8.442A2.571 2.571 0 0 1 8.279 5.87H15.9a2.571 2.571 0 0 1 2.572 2.572v7.081c0 1.44-1.184 2.6-2.624 2.571Zm.018-.857-7.621-.154a1.714 1.714 0 0 1-1.68-1.714V8.443c0-.947.768-1.714 1.714-1.714H15.9c.947 0 1.714.767 1.714 1.714v7.081c0 .96-.788 1.734-1.748 1.714Z"/><path d="M2.407 19.284v-7.116H1.55v7.116a3 3 0 0 0 3 3h7.62v-.857H4.55a2.143 2.143 0 0 1-2.143-2.143Z"/></symbol><symbol viewBox="0 0 24 24" id="scale" xmlns="http://www.w3.org/2000/svg"><path d="M11 2c-4.055.007-6.178.107-7.536 1.464C2 4.928 2 7.285 2 11.999s0 7.071 1.464 8.536C4.93 21.999 7.286 21.999 12 21.999c4.714 0 7.071 0 8.535-1.464 1.358-1.357 1.457-3.48 1.464-7.536M13 11l9-9m0 0h-5.344M22 2v5.344M21 3l-9 9m0 0h4m-4 0V8"/></symbol><symbol viewBox="0 0 24 24" id="search" xmlns="http://www.w3.org/2000/svg"><path d="M14.412 14.412 20 20"/><path fill-rule="evenodd" clip-rule="evenodd" d="M10 16a6 6 0 1 0 0-12 6 6 0 0 0 0 12Z"/></symbol><symbol viewBox="0 0 24 24" id="support" xmlns="http://www.w3.org/2000/svg"><path d="m11 8-1.578-.789A2 2 0 0 0 8.528 7h-.7a2 2 0 0 0-1.414.586l-.828.828A2 2 0 0 0 5 9.828v5.102a2 2 0 0 0 .89 1.664l3.867 2.578a2 2 0 0 0 2.39-.128L17 15"/><path fill-rule="evenodd" clip-rule="evenodd" d="M14.455 12.914a2 2 0 0 0-2.59-.542l-1.856 1.055a1.523 1.523 0 0 1-1.728-2.494l4.163-3.47A2 2 0 0 1 13.724 7h.804a2 2 0 0 1 .894.211l2.472 1.236A2 2 0 0 1 19 10.237v2.743c0 1.924-2.451 2.738-3.602 1.196l-.943-1.262Z"/><path d="M1 17V8M1 17V8M23 17V8"/></symbol><symbol viewBox="0 0 24 24" id="trash" xmlns="http://www.w3.org/2000/svg"><path d="M19 6H5M14 5h-4M6 8.324V21h12V8.324"/></symbol><symbol viewBox="0 0 24 24" id="verified" xmlns="http://www.w3.org/2000/svg"><path d="m8 12.5 2.5 2.5L16 9.5"/><path d="M12 22a3 3 0 0 0 2.757-1.816c.162-.377.699-.6 1.08-.447a3 3 0 0 0 3.9-3.9c-.152-.381.07-.918.447-1.08a3 3 0 0 0 0-5.514c-.377-.163-.6-.699-.447-1.08a3 3 0 0 0-3.9-3.9c-.381.152-.918-.07-1.08-.447a3 3 0 0 0-5.514 0c-.163.377-.699.6-1.08.447a3 3 0 0 0-3.9 3.9c.152.381-.07.917-.447 1.08a3 3 0 0 0 0 5.514c.377.162.6.699.447 1.08a3 3 0 0 0 3.9 3.9c.381-.152.917.07 1.08.447A3 3 0 0 0 12 22Z"/></symbol><symbol viewBox="0 0 24 24" id="x" xmlns="http://www.w3.org/2000/svg"><path d="M14.925 17.256h1.626L9.066 6.78H7.44l7.485 10.476Z"/><path fill-rule="evenodd" clip-rule="evenodd" d="M20.414 3.586A2 2 0 0 0 19 3H5a2 2 0 0 0-2 2v14a2 2 0 0 0 2 2h14a2 2 0 0 0 2-2V5a2 2 0 0 0-.586-1.414ZM17.61 6l-4.467 5.081L18 18h-3.573l-3.272-4.66L7.059 18H6l4.685-5.328L6 6h3.573l3.098 4.412L16.551 6h1.058Z"/></symbol></svg>